<?xml version="1.0" standalone="no"?><!-- Generator: Gravit.io --><svg xmlns="http://www.w3.org/2000/svg" xmlns:xlink="http://www.w3.org/1999/xlink" style="isolation:isolate" viewBox="0 0 1366 768" width="1366" height="768"><g style="opacity:0.1;"><path d=" M 1497.176 427.501 C 1475.296 414.716 1447.193 422.088 1434.407 443.969 L 1249.193 760.926 C 1236.388 782.796 1243.736 810.905 1265.61 823.709 C 1287.479 836.513 1315.589 829.165 1328.392 807.291 C 1328.405 807.27 1328.417 807.249 1328.429 807.228 L 1513.644 490.271 C 1526.429 468.39 1519.057 440.287 1497.176 427.501 Z " fill="rgb(22,57,105)"/><path d=" M 1363.279 588.423 L 1422.708 623.151 C 1428.18 626.348 1430.021 633.375 1426.825 638.844 C 1423.629 644.314 1416.603 646.159 1411.131 642.961 L 1351.702 608.234 C 1346.233 605.038 1344.392 598.012 1347.588 592.542 C 1350.784 587.073 1357.809 585.227 1363.279 588.423 Z " fill="rgb(0,39,85)"/><path d=" M 1335.357 386.089 C 1348.143 364.208 1340.77 336.105 1318.89 323.32 L 1268.206 293.702 C 1251.152 283.737 1229.636 285.803 1214.79 298.83 L 1130.575 372.721 L 1209.814 419.025 L 1282.532 355.22 L 1335.357 386.089 Z " fill="rgb(255,190,0)"/><path d=" M 1318.89 323.32 C 1340.77 336.105 1348.143 364.208 1335.357 386.089 L 1264.352 371.172 L 1318.89 323.32 Z " fill="rgb(22,57,105)"/><path d=" M 1388.103 523.208 L 1467.34 569.51 C 1478.282 575.904 1481.968 589.955 1475.574 600.897 L 1463.998 620.707 C 1457.606 631.646 1443.554 635.333 1432.613 628.939 L 1353.376 582.637 C 1342.435 576.243 1338.748 562.192 1345.14 551.253 L 1356.717 531.442 C 1363.11 520.501 1377.162 516.814 1388.103 523.208 Z " fill="rgb(67,94,136)"/><path d=" M 1378.198 517.42 L 1457.435 563.722 C 1462.907 566.919 1464.748 573.946 1461.552 579.415 C 1458.356 584.885 1451.331 586.73 1445.859 583.532 L 1366.622 537.23 C 1361.15 534.033 1359.309 527.006 1362.505 521.537 C 1365.701 516.068 1372.726 514.222 1378.198 517.42 Z " fill="rgb(125,143,172)"/><path d=" M 1513.644 490.271 C 1526.429 468.39 1519.057 440.287 1497.176 427.501 L 1446.492 397.884 C 1429.439 387.919 1407.923 389.985 1393.076 403.012 L 1308.864 476.904 L 1388.103 523.208 L 1460.818 459.402 L 1513.644 490.271 Z " fill="rgb(255,190,0)"/><path d=" M 1346.932 366.281 L 1406.361 401.008 C 1428.244 413.796 1435.616 441.899 1422.831 463.779 L 1411.254 483.59 L 1312.205 425.71 L 1346.932 366.281 Z " fill="rgb(255,163,0)"/><path d=" M 1384.881 415.028 C 1401.292 424.618 1406.822 445.697 1397.232 462.108 C 1387.642 478.519 1366.563 484.049 1350.152 474.459 C 1333.741 464.87 1328.211 443.79 1337.801 427.379 C 1347.393 410.97 1368.47 405.438 1384.881 415.028 Z " fill="rgb(249,139,0)"/><path d=" M 1333.048 798.189 L 1418.557 546.295 C 1432.574 505.006 1415.603 459.556 1377.957 437.557 L 1210.176 339.514 C 1172.53 317.516 1124.602 325.042 1095.511 357.519 L 918.024 555.67 C 887.777 596.34 896.225 653.831 936.895 684.079 C 939.612 686.099 942.441 687.969 945.362 689.676 L 1202.88 840.157 C 1246.644 865.73 1302.85 850.984 1328.422 807.223 C 1330.13 804.3 1331.673 801.283 1333.048 798.189 Z " fill="rgb(0,94,238)"/><path d=" M 1419.486 514.975 C 1431.004 521.705 1436.172 535.63 1431.829 548.245 L 1354.952 771.64 C 1341.432 810.932 1298.618 831.823 1259.326 818.302 C 1254.643 816.69 1250.129 814.62 1245.85 812.119 C 1209.975 791.155 1197.886 745.076 1218.849 709.201 C 1221.349 704.924 1224.267 700.902 1227.556 697.196 L 1384.441 520.554 C 1393.3 510.577 1407.968 508.244 1419.486 514.975 Z " fill="rgb(7,132,255)"/><path d=" M 1153.802 726.029 L 1336.906 519.866 C 1360.057 480.248 1351.823 448.861 1312.205 425.71 L 1146.469 328.862 C 1126.801 332.572 1108.899 342.643 1095.511 357.519 L 918.024 555.67 C 887.777 596.34 896.225 653.831 936.895 684.079 C 939.612 686.099 942.441 687.969 945.362 689.676 L 1038.879 744.322 C 1076.652 766.395 1124.752 758.739 1153.802 726.029 Z " fill="rgb(7,156,255)"/><path d=" M 960.282 618.672 L 1098.95 699.703 C 1109.889 706.095 1113.575 720.147 1107.181 731.088 C 1100.789 742.027 1086.738 745.714 1075.799 739.321 L 937.131 658.291 C 926.189 651.897 922.503 637.845 928.895 626.906 C 935.289 615.965 949.34 612.279 960.282 618.672 Z " fill="rgb(92,190,255)"/><path d=" M 1122.101 660.085 C 1133.04 666.477 1136.726 680.528 1130.332 691.47 L 1118.756 711.28 C 1112.364 722.219 1098.312 725.906 1087.374 719.514 C 1076.432 713.12 1072.746 699.068 1079.138 688.129 L 1090.714 668.319 C 1097.108 657.377 1111.159 653.691 1122.101 660.085 Z " fill="rgb(7,132,255)"/><path d=" M 995.009 559.243 L 1133.677 640.274 C 1144.616 646.666 1148.302 660.718 1141.909 671.659 C 1135.517 682.598 1121.463 686.287 1110.525 679.895 L 971.856 598.864 C 960.915 592.471 957.229 578.419 963.622 567.478 C 970.016 556.536 984.067 552.85 995.009 559.243 Z " fill="rgb(7,132,255)"/><path d=" M 1115.658 443.726 C 1126.6 450.12 1130.286 464.171 1123.892 475.113 L 1100.741 514.731 C 1094.348 525.673 1080.296 529.359 1069.355 522.966 C 1058.416 516.573 1054.729 502.522 1061.123 491.58 L 1084.274 451.962 C 1090.665 441.019 1104.717 437.333 1115.658 443.726 Z " fill="rgb(7,132,255)"/><path d=" M 1214.708 501.606 C 1225.647 507.998 1229.333 522.05 1222.94 532.991 L 1199.789 572.61 C 1193.395 583.551 1179.343 587.237 1168.404 580.845 C 1157.463 574.452 1153.777 560.4 1160.17 549.459 L 1183.321 509.84 C 1189.715 498.899 1203.766 495.212 1214.708 501.606 Z " fill="rgb(7,132,255)"/><path d=" M 1343.57 417.463 L 1185.131 324.879 C 1166.952 314.256 1143.873 317.37 1129.157 332.431 L 1063.047 400.093 C 1045.333 418.221 1045.672 447.274 1063.799 464.984 C 1066.481 467.604 1069.475 469.889 1072.716 471.783 L 1231.155 564.367 C 1249.335 574.99 1272.413 571.877 1287.127 556.814 L 1353.241 489.151 C 1370.953 471.026 1370.617 441.974 1352.489 424.26 C 1349.805 421.638 1346.811 419.357 1343.57 417.463 Z " fill="rgb(7,132,255)"/><path d=" M 1381.665 386.577 L 1201.684 281.405 C 1173.829 265.128 1138.408 270.381 1116.476 294.041 L 1068.544 345.754 C 1042.7 373.632 1044.351 417.183 1072.232 443.028 C 1075.916 446.439 1079.96 449.441 1084.298 451.976 L 1214.887 528.286 C 1242.742 544.563 1278.163 539.31 1300.096 515.65 L 1386.918 421.985 C 1395.53 412.691 1394.981 398.174 1385.688 389.56 C 1384.461 388.42 1383.111 387.422 1381.665 386.577 Z " fill="rgb(255,234,33)"/><path d=" M 1184.992 484.242 L 1107.032 438.686 C 1101.56 435.488 1094.535 437.333 1091.339 442.803 C 1088.143 448.272 1089.984 455.299 1095.456 458.496 L 1173.416 504.052 C 1178.885 507.248 1185.913 505.404 1189.109 499.935 C 1192.305 494.466 1190.462 487.438 1184.992 484.242 Z  M 1390.934 397.192 C 1386.29 394.489 1380.394 395.367 1376.741 399.307 L 1283.267 500.051 C 1268.699 515.921 1245.011 519.434 1226.464 508.475 L 1166.461 473.413 C 1160.989 470.215 1153.964 472.061 1150.768 477.53 C 1147.572 483 1149.413 490.026 1154.885 493.224 L 1214.887 528.286 C 1242.742 544.563 1278.163 539.31 1300.096 515.65 L 1393.566 414.905 C 1397.876 410.249 1397.592 402.984 1392.938 398.679 C 1392.326 398.112 1391.653 397.613 1390.934 397.192 Z " fill="rgb(255,190,0)"/><path d=" M 1176.878 293.482 L 1335.357 386.089 C 1346.299 392.483 1349.982 406.533 1343.589 417.474 C 1337.197 428.413 1323.148 432.101 1312.206 425.707 L 1153.727 333.1 C 1142.789 326.708 1139.102 312.656 1145.494 301.718 C 1151.888 290.776 1165.94 287.09 1176.878 293.482 Z " fill="rgb(255,252,116)"/><path d=" M 1310.413 610.682 L 1350.031 633.833 L 1326.88 673.451 L 1267.452 638.724 L 1279.028 618.913 C 1285.42 607.974 1299.472 604.288 1310.413 610.682 Z " fill="rgb(67,94,136)"/><path d=" M 1310.026 637.027 L 1366.888 670.254 C 1384.776 680.707 1392.483 702.559 1385.116 721.921 L 1349.49 815.524 C 1348.657 817.708 1347.648 819.817 1346.471 821.831 C 1334.662 842.041 1308.707 848.85 1288.497 837.04 L 1203.202 787.198 C 1182.992 775.388 1176.183 749.434 1187.993 729.224 C 1189.17 727.21 1190.512 725.295 1192.008 723.499 L 1256.065 646.51 C 1269.317 630.586 1292.137 626.573 1310.026 637.027 Z " fill="rgb(22,57,105)"/><path d=" M 1303.728 713.072 L 1343.349 736.224 C 1354.288 742.617 1357.974 756.668 1351.582 767.607 C 1345.188 778.549 1331.137 782.235 1320.198 775.843 L 1280.577 752.69 C 1269.638 746.298 1265.949 732.245 1272.343 721.303 C 1278.737 710.366 1292.789 706.68 1303.728 713.072 Z " fill="rgb(0,39,85)"/><path d=" M 1311.648 797.422 L 1253.314 763.334 C 1242.373 756.941 1238.686 742.889 1245.08 731.947 C 1245.718 730.856 1246.444 729.819 1247.253 728.848 L 1290.855 676.442 C 1298.961 666.704 1297.634 652.237 1287.893 644.129 C 1278.152 636.026 1263.685 637.353 1255.582 647.093 L 1192.005 723.498 C 1188.341 727.864 1185.645 732.955 1184.099 738.442 C 1184.023 738.717 1183.981 738.99 1183.909 739.264 C 1178.695 757.77 1186.621 777.462 1203.202 787.198 L 1288.529 837.059 C 1299.477 843.442 1313.524 839.746 1319.909 828.8 C 1326.292 817.852 1322.596 803.805 1311.648 797.422 Z " fill="rgb(0,39,85)"/><path d=" M 1107.422 412.342 C 1118.364 418.736 1122.05 432.787 1115.658 443.726 L 1092.507 483.345 C 1086.113 494.286 1072.062 497.972 1061.123 491.58 C 1050.182 485.187 1046.495 471.135 1052.889 460.194 L 1076.04 420.575 C 1082.432 409.636 1096.484 405.95 1107.422 412.342 Z " fill="rgb(67,94,136)"/><path d=" M 1206.472 470.222 C 1217.414 476.616 1221.1 490.667 1214.708 501.606 L 1191.557 541.224 C 1185.163 552.166 1171.112 555.852 1160.17 549.459 C 1149.231 543.066 1145.545 529.015 1151.939 518.073 L 1175.09 478.455 C 1181.479 467.515 1195.531 463.828 1206.472 470.222 Z " fill="rgb(67,94,136)"/><path d=" M 1351.574 767.602 L 1282.258 727.098 C 1273.167 721.785 1268.86 710.97 1271.808 700.863 L 1296.63 635.646 C 1300.181 623.483 1312.919 616.497 1325.084 620.045 C 1326.883 620.572 1328.611 621.316 1330.232 622.262 L 1399.547 662.767 C 1408.635 668.078 1412.946 678.895 1409.998 689.002 L 1385.173 754.217 C 1381.625 766.382 1368.886 773.368 1356.723 769.817 C 1354.923 769.293 1353.192 768.548 1351.574 767.602 Z " fill="rgb(67,94,136)"/><path d=" M 1006.584 539.436 L 1145.252 620.466 C 1156.191 626.858 1159.877 640.91 1153.485 651.849 C 1147.091 662.79 1133.04 666.477 1122.101 660.085 L 983.433 579.054 C 972.491 572.66 968.805 558.609 975.198 547.667 C 981.591 536.728 995.642 533.042 1006.584 539.436 Z " fill="rgb(22,57,105)"/><path d=" M 1113.867 628.698 C 1124.808 635.092 1128.495 649.143 1122.101 660.085 L 1110.525 679.895 C 1104.132 690.834 1090.081 694.52 1079.139 688.127 C 1068.201 681.735 1064.514 667.683 1070.906 656.744 L 1082.483 636.934 C 1088.874 625.991 1102.925 622.304 1113.867 628.698 Z " fill="rgb(67,94,136)"/><path d=" M 1354.925 716.414 C 1348.533 727.353 1334.48 731.042 1323.538 724.648 C 1312.597 718.254 1308.912 704.2 1315.304 693.261 C 1321.698 682.32 1335.749 678.633 1346.691 685.027 C 1357.632 691.421 1361.319 705.472 1354.925 716.414 Z " fill="rgb(255,190,0)"/><path d=" M 1340.903 694.932 C 1337.707 700.402 1330.679 702.246 1325.209 699.05 C 1319.74 695.853 1317.896 688.826 1321.092 683.356 C 1324.288 677.887 1331.316 676.043 1336.786 679.239 C 1342.255 682.435 1344.099 689.463 1340.903 694.932 Z " fill="rgb(255,234,33)"/><path d=" M 1308.985 317.531 L 1328.795 329.108 C 1334.264 332.304 1336.107 339.327 1332.909 344.799 C 1329.713 350.269 1322.69 352.112 1317.22 348.916 L 1297.41 337.339 C 1291.938 334.142 1290.095 327.118 1293.291 321.648 C 1296.489 316.176 1303.512 314.334 1308.985 317.531 Z " fill="rgb(255,190,0)"/><path d=" M 1105.753 437.938 C 1111.222 441.134 1113.066 448.162 1109.87 453.631 L 1098.294 473.442 C 1095.098 478.911 1088.07 480.755 1082.6 477.559 C 1077.131 474.363 1075.287 467.335 1078.483 461.866 L 1090.06 442.055 C 1093.256 436.586 1100.283 434.742 1105.753 437.938 Z " fill="rgb(22,57,105)"/><path d=" M 1204.803 495.818 C 1210.272 499.014 1212.116 506.042 1208.92 511.511 L 1197.344 531.322 C 1194.147 536.791 1187.12 538.635 1181.65 535.439 C 1176.178 532.241 1174.337 525.215 1177.533 519.746 L 1189.109 499.935 C 1192.305 494.466 1199.331 492.62 1204.803 495.818 Z " fill="rgb(22,57,105)"/><path d=" M 1116.313 669.99 C 1113.117 675.459 1106.089 677.303 1100.619 674.107 C 1095.147 670.909 1093.306 663.883 1096.502 658.414 C 1099.7 652.942 1106.724 651.099 1112.196 654.297 C 1117.665 657.493 1119.51 664.518 1116.313 669.99 Z " fill="rgb(22,57,105)"/><path d=" M 1328.551 647.852 L 1387.98 682.58 C 1393.452 685.777 1395.293 692.803 1392.097 698.273 C 1388.901 703.742 1381.876 705.588 1376.404 702.39 L 1316.975 667.663 C 1311.506 664.467 1309.665 657.44 1312.861 651.971 C 1316.057 646.501 1323.082 644.656 1328.551 647.852 Z " fill="rgb(125,143,172)"/><path d=" M 1385.175 754.219 C 1385.175 754.219 1393.301 732.867 1393.352 732.737 L 1393.364 732.705 C 1395.603 726.78 1392.617 720.159 1386.693 717.917 C 1380.774 715.678 1374.16 718.653 1371.909 724.569 L 1363.732 746.057 C 1363.512 746.627 1363.319 747.206 1363.149 747.795 L 1313.633 718.86 C 1308.164 715.664 1301.137 717.505 1297.941 722.974 C 1294.744 728.447 1296.589 735.472 1302.058 738.668 L 1351.574 767.602 L 1351.59 767.594 L 1351.582 767.607 C 1362.527 773.995 1376.576 770.301 1382.964 759.356 C 1383.908 757.741 1384.651 756.015 1385.175 754.219 Z " fill="rgb(51,82,125)"/><path d=" M 1475.695 441.524 L 1515.313 464.675 C 1520.785 467.872 1522.628 474.896 1519.43 480.368 C 1516.234 485.837 1509.21 487.68 1503.738 484.483 L 1464.12 461.332 C 1458.651 458.135 1456.805 451.11 1460.001 445.641 C 1463.199 440.169 1470.225 438.328 1475.695 441.524 Z " fill="rgb(255,163,0)"/><path d=" M 1447.653 398.562 L 1487.271 421.713 C 1492.74 424.909 1494.586 431.934 1491.388 437.407 C 1488.192 442.876 1481.166 444.717 1475.696 441.521 L 1436.078 418.37 C 1430.606 415.172 1428.763 408.149 1431.959 402.679 C 1435.157 397.207 1442.181 395.365 1447.653 398.562 Z " fill="rgb(255,234,33)"/></g></svg>