<?xml version="1.0" standalone="no"?><!-- Generator: Gravit.io --><svg xmlns="http://www.w3.org/2000/svg" xmlns:xlink="http://www.w3.org/1999/xlink" style="isolation:isolate" viewBox="0 0 1366 768" width="1366" height="768"><g style="opacity:0.1;"><g><rect x="994.954" y="390.806" width="131.769" height="79.061" transform="matrix(0.786,-0.619,0.619,0.786,-38.854,748.527)" fill="rgb(222,221,224)"/><rect x="1098.48" y="309.287" width="131.769" height="79.061" transform="matrix(0.786,-0.619,0.619,0.786,33.768,795.101)" fill="rgb(205,205,208)"/><path d=" M 1259.335 575.924 L 1234.88 544.866 L 1219.351 557.094 L 1194.895 526.036 L 1210.424 513.808 L 1185.968 482.75 L 1108.324 543.89 L 1083.868 512.832 L 1161.512 451.693 L 1137.057 420.635 L 1033.531 502.154 L 992.12 534.762 L 1163.31 752.166 L 1204.721 719.559 L 1155.809 657.443 L 1259.335 575.924 Z  M 1132.779 574.948 L 1163.837 550.492 L 1188.293 581.55 L 1157.235 606.005 L 1132.779 574.948 Z " fill="rgb(0,161,167)"/><path d=" M 1281.993 306.508 L 1240.583 339.116 L 1137.057 420.635 L 1161.512 451.693 L 1239.157 390.553 L 1263.613 421.611 L 1185.968 482.75 L 1210.424 513.808 L 1225.953 501.58 L 1250.409 532.638 L 1234.88 544.866 L 1259.335 575.924 L 1362.861 494.405 L 1411.773 556.52 L 1453.183 523.913 L 1281.993 306.508 Z  M 1312.524 483.727 L 1281.466 508.182 L 1257.011 477.125 L 1288.068 452.669 L 1312.524 483.727 Z " fill="rgb(0,108,112)"/><path d=" M 1259.335 575.924 L 1155.809 657.443 L 1204.721 719.559 L 1253.632 781.674 L 1357.158 700.155 L 1308.247 638.039 L 1259.335 575.924 Z " fill="rgb(222,221,224)"/><path d=" M 1259.335 575.924 L 1308.247 638.039 L 1357.158 700.155 L 1460.684 618.636 L 1411.773 556.52 L 1362.861 494.405 L 1259.335 575.924 Z " fill="rgb(205,205,208)"/><path d=" M 1108.324 543.89 L 1185.968 482.75 L 1263.613 421.611 L 1239.157 390.553 L 1161.512 451.693 L 1083.868 512.832 L 1108.324 543.89 Z " fill="rgb(204,247,249)"/><path d=" M 1219.351 557.094 L 1234.88 544.866 L 1250.409 532.638 L 1225.953 501.58 L 1210.424 513.808 L 1194.895 526.036 L 1219.351 557.094 Z " fill="rgb(255,255,255)"/><rect x="1265.002" y="460.66" width="39.531" height="39.531" transform="matrix(0.786,-0.619,0.619,0.786,-21.845,897.797)" fill="rgb(255,255,255)"/><rect x="1140.771" y="558.483" width="39.531" height="39.531" transform="matrix(0.786,-0.619,0.619,0.786,-108.991,841.908)" fill="rgb(255,255,255)"/><path d=" M 918.102 525.959 C 895.232 543.967 891.29 577.106 909.299 599.977 L 1080.49 817.382 C 1098.499 840.253 1131.638 844.193 1154.508 826.184 C 1177.378 808.176 1181.32 775.037 1163.31 752.166 L 992.12 534.762 C 974.111 511.891 940.972 507.95 918.102 525.959 Z " fill="rgb(0,108,112)"/></g></g></svg>