<?xml version="1.0" standalone="no"?><!-- Generator: Gravit.io --><svg xmlns="http://www.w3.org/2000/svg" xmlns:xlink="http://www.w3.org/1999/xlink" style="isolation:isolate" viewBox="0 0 1366 768" width="1366" height="768"><g style="opacity:0.1;"><path d=" M 936.936 545.925 L 1036.514 499.108 L 1138.086 715.146 L 1038.508 761.964 L 936.936 545.925 Z " fill="rgb(255,218,168)"/><path d=" M 1096.558 470.873 L 1196.136 424.056 L 1297.71 640.098 L 1198.132 686.915 L 1096.558 470.873 Z " fill="rgb(255,218,168)"/><path d=" M 1256.184 395.828 L 1355.762 349.011 L 1457.334 565.049 L 1357.756 611.867 L 1256.184 395.828 Z " fill="rgb(255,195,115)"/><path d=" M 1145.908 447.671 L 1196.136 424.056 L 1297.71 640.098 L 1247.482 663.713 L 1145.908 447.671 Z " fill="rgb(255,195,115)"/><path d=" M 1382.171 268.422 L 1422.83 354.901 L 899.708 600.851 L 859.05 514.371 L 1063.193 271.739 L 1063.936 270.853 L 1382.171 268.422 Z " fill="rgb(188,154,123)"/><path d=" M 996.981 744.061 L 1482.299 515.885 L 1524.212 605.03 L 1038.894 833.206 L 996.981 744.061 Z " fill="rgb(137,103,70)"/><path d=" M 1233.071 633.061 L 1482.299 515.885 L 1524.212 605.03 L 1274.983 722.207 L 1233.071 633.061 Z " fill="rgb(113,85,57)"/><path d=" M 1382.171 268.422 L 1422.83 354.901 L 1160.319 478.322 L 1063.193 271.739 L 1063.936 270.853 L 1382.171 268.422 Z " fill="rgb(178,137,101)"/><path d=" M 1006.345 827.661 L 1529.467 581.711 L 1571 670.05 L 1047.878 916 L 1006.345 827.661 Z " fill="rgb(255,218,168)"/><path d=" M 1266.956 705.133 L 1529.467 581.711 L 1571 670.05 L 1308.489 793.472 L 1266.956 705.133 Z " fill="rgb(255,195,115)"/><path d=" M 1156.219 346.482 C 1168.397 372.384 1157.238 403.357 1131.336 415.535 C 1131.192 415.603 1131.04 415.674 1130.891 415.73 C 1105.091 427.587 1074.395 416.405 1062.284 390.646 C 1050.176 364.892 1061.147 334.119 1086.736 321.815 C 1086.874 321.736 1087.026 321.664 1087.17 321.597 C 1113.072 309.419 1144.043 320.584 1156.219 346.482 Z " fill="rgb(255,175,18)"/><path d=" M 1131.336 415.535 C 1131.192 415.603 1131.04 415.674 1130.891 415.73 L 1086.736 321.815 C 1086.874 321.736 1087.026 321.664 1087.17 321.597 C 1113.072 309.419 1144.043 320.584 1156.219 346.482 C 1168.397 372.384 1157.238 403.357 1131.336 415.535 Z " fill="rgb(255,136,0)"/></g></svg>