<?xml version="1.0" standalone="no"?><!-- Generator: Gravit.io --><svg xmlns="http://www.w3.org/2000/svg" xmlns:xlink="http://www.w3.org/1999/xlink" style="isolation:isolate" viewBox="0 0 500 500" width="500" height="500"><g><path d="M 77.419 190.828 L 422.581 190.828 C 437.99 190.828 450.5 203.338 450.5 218.747 L 450.5 452.412 C 450.5 467.82 437.99 480.33 422.581 480.33 L 77.419 480.33 C 62.01 480.33 49.5 467.82 49.5 452.412 L 49.5 218.747 C 49.5 203.338 62.01 190.828 77.419 190.828 Z" style="stroke:none;fill:#2196F3;stroke-miterlimit:10;"/><clipPath id="_clipPath_etvOCnLyHGggnyl4iSq2lsHI7GfGWs5e"><path d="M 77.419 190.828 L 422.581 190.828 C 437.99 190.828 450.5 203.338 450.5 218.747 L 450.5 452.412 C 450.5 467.82 437.99 480.33 422.581 480.33 L 77.419 480.33 C 62.01 480.33 49.5 467.82 49.5 452.412 L 49.5 218.747 C 49.5 203.338 62.01 190.828 77.419 190.828 Z" style="stroke:none;fill:#2196F3;stroke-miterlimit:10;"/></clipPath><g clip-path="url(#_clipPath_etvOCnLyHGggnyl4iSq2lsHI7GfGWs5e)"><path d="M 144.371 190.828 L 506.249 190.828 C 517.045 190.828 525.81 199.593 525.81 210.389 L 525.81 460.77 C 525.81 471.566 517.045 480.33 506.249 480.33 L 144.371 480.33 C 133.575 480.33 124.81 471.566 124.81 460.77 L 124.81 210.389 C 124.81 199.593 133.575 190.828 144.371 190.828 Z" style="stroke:none;fill:#37A1F4;stroke-miterlimit:10;"/><path d="M 270.077 190.828 L 631.955 190.828 C 642.751 190.828 651.516 199.593 651.516 210.389 L 651.516 460.77 C 651.516 471.566 642.751 480.33 631.955 480.33 L 270.077 480.33 C 259.281 480.33 250.516 471.566 250.516 460.77 L 250.516 210.389 C 250.516 199.593 259.281 190.828 270.077 190.828 Z" style="stroke:none;fill:#5FB4F6;stroke-miterlimit:10;"/></g><path d=" M 450.5 219.909 C 450.361 109.369 360.574 19.67 250.002 19.67 C 139.947 19.67 50.484 108.532 49.518 218.361 L 450.5 219.909 L 450.5 219.909 Z " fill="rgb(0,150,136)"/><clipPath id="_clipPath_tBX8UfL2Z445yzp0OoSrLE4CJyOowaFN"><path d=" M 450.5 219.909 C 450.361 109.369 360.574 19.67 250.002 19.67 C 139.947 19.67 50.484 108.532 49.518 218.361 L 450.5 219.909 L 450.5 219.909 Z " fill="rgb(0,150,136)"/></clipPath><g clip-path="url(#_clipPath_tBX8UfL2Z445yzp0OoSrLE4CJyOowaFN)"><path d=" M 523.836 220.887 C 523.697 110.347 433.91 20.648 323.338 20.648 C 213.284 20.648 123.82 109.51 122.854 219.339 L 523.836 220.887 L 523.836 220.887 Z " fill="rgb(51,171,160)"/><path d=" M 650.982 220.887 C 650.843 110.347 561.057 20.648 450.485 20.648 C 340.43 20.648 250.966 109.51 250 219.339 L 650.982 220.887 L 650.982 220.887 Z " fill="rgb(77,182,172)"/></g><path d=" M 222.172 378.113 L 222.172 335.677 L 246.115 335.677 L 246.115 389.988 L 246.115 389.988 Q 235.604 398.359 221.588 402.836 L 221.588 402.836 L 221.588 402.836 Q 207.572 407.313 192.777 407.313 L 192.777 407.313 L 192.777 407.313 Q 171.948 407.313 155.207 398.261 L 155.207 398.261 L 155.207 398.261 Q 138.466 389.209 128.928 373.247 L 128.928 373.247 L 128.928 373.247 Q 119.389 357.284 119.389 337.234 L 119.389 337.234 L 119.389 337.234 Q 119.389 317.183 128.928 301.221 L 128.928 301.221 L 128.928 301.221 Q 138.466 285.259 155.305 276.207 L 155.305 276.207 L 155.305 276.207 Q 172.143 267.155 193.167 267.155 L 193.167 267.155 L 193.167 267.155 Q 210.297 267.155 224.313 272.8 L 224.313 272.8 L 224.313 272.8 Q 238.329 278.445 247.867 289.346 L 247.867 289.346 L 231.905 304.92 L 231.905 304.92 Q 216.332 289.346 194.335 289.346 L 194.335 289.346 L 194.335 289.346 Q 179.93 289.346 168.736 295.381 L 168.736 295.381 L 168.736 295.381 Q 157.543 301.416 151.217 312.317 L 151.217 312.317 L 151.217 312.317 Q 144.89 323.218 144.89 337.234 L 144.89 337.234 L 144.89 337.234 Q 144.89 350.86 151.217 361.762 L 151.217 361.762 L 151.217 361.762 Q 157.543 372.663 168.736 378.892 L 168.736 378.892 L 168.736 378.892 Q 179.93 385.121 194.14 385.121 L 194.14 385.121 L 194.14 385.121 Q 210.103 385.121 222.172 378.113 L 222.172 378.113 L 222.172 378.113 Z  M 323.787 406.729 L 323.787 406.729 Q 308.019 406.729 295.366 399.916 L 295.366 399.916 L 295.366 399.916 Q 282.712 393.103 275.607 380.936 L 275.607 380.936 L 275.607 380.936 Q 268.502 368.77 268.502 353.391 L 268.502 353.391 L 268.502 353.391 Q 268.502 338.013 275.607 325.943 L 275.607 325.943 L 275.607 325.943 Q 282.712 313.874 295.366 307.061 L 295.366 307.061 L 295.366 307.061 Q 308.019 300.248 323.787 300.248 L 323.787 300.248 L 323.787 300.248 Q 339.749 300.248 352.402 307.061 L 352.402 307.061 L 352.402 307.061 Q 365.055 313.874 372.161 325.943 L 372.161 325.943 L 372.161 325.943 Q 379.266 338.013 379.266 353.391 L 379.266 353.391 L 379.266 353.391 Q 379.266 368.77 372.161 380.936 L 372.161 380.936 L 372.161 380.936 Q 365.055 393.103 352.402 399.916 L 352.402 399.916 L 352.402 399.916 Q 339.749 406.729 323.787 406.729 L 323.787 406.729 L 323.787 406.729 Z  M 323.787 385.9 L 323.787 385.9 Q 337.218 385.9 345.978 376.945 L 345.978 376.945 L 345.978 376.945 Q 354.738 367.991 354.738 353.391 L 354.738 353.391 L 354.738 353.391 Q 354.738 338.791 345.978 329.837 L 345.978 329.837 L 345.978 329.837 Q 337.218 320.882 323.787 320.882 L 323.787 320.882 L 323.787 320.882 Q 310.355 320.882 301.692 329.837 L 301.692 329.837 L 301.692 329.837 Q 293.03 338.791 293.03 353.391 L 293.03 353.391 L 293.03 353.391 Q 293.03 367.991 301.692 376.945 L 301.692 376.945 L 301.692 376.945 Q 310.355 385.9 323.787 385.9 L 323.787 385.9 L 323.787 385.9 Z " fill-rule="evenodd" fill="rgb(255,255,255)"/></g></svg>